<svg width="195" height="23" viewBox="0 0 195 23" fill="none" xmlns="http://www.w3.org/2000/svg">
<path d="M14.3516 15.2178H17.1641C17.0176 16.5654 16.6318 17.7715 16.0068 18.8359C15.3818 19.9004 14.498 20.7451 13.3555 21.3701C12.2129 21.9854 10.7871 22.293 9.07812 22.293C7.82812 22.293 6.69043 22.0586 5.66504 21.5898C4.64941 21.1211 3.77539 20.457 3.04297 19.5977C2.31055 18.7285 1.74414 17.6885 1.34375 16.4775C0.953125 15.2568 0.757812 13.8994 0.757812 12.4053V10.2812C0.757812 8.78711 0.953125 7.43457 1.34375 6.22363C1.74414 5.00293 2.31543 3.95801 3.05762 3.08887C3.80957 2.21973 4.71289 1.55078 5.76758 1.08203C6.82227 0.613281 8.00879 0.378906 9.32715 0.378906C10.9385 0.378906 12.3008 0.681641 13.4141 1.28711C14.5273 1.89258 15.3916 2.73242 16.0068 3.80664C16.6318 4.87109 17.0176 6.10645 17.1641 7.5127H14.3516C14.2148 6.5166 13.9609 5.66211 13.5898 4.94922C13.2188 4.22656 12.6914 3.66992 12.0078 3.2793C11.3242 2.88867 10.4307 2.69336 9.32715 2.69336C8.37988 2.69336 7.54492 2.87402 6.82227 3.23535C6.10938 3.59668 5.50879 4.10938 5.02051 4.77344C4.54199 5.4375 4.18066 6.2334 3.93652 7.16113C3.69238 8.08887 3.57031 9.11914 3.57031 10.252V12.4053C3.57031 13.4502 3.67773 14.4316 3.89258 15.3496C4.11719 16.2676 4.4541 17.0732 4.90332 17.7666C5.35254 18.46 5.92383 19.0068 6.61719 19.4072C7.31055 19.7979 8.13086 19.9932 9.07812 19.9932C10.2793 19.9932 11.2363 19.8027 11.9492 19.4219C12.6621 19.041 13.1992 18.4941 13.5605 17.7812C13.9316 17.0684 14.1953 16.2139 14.3516 15.2178ZM37.9473 9.8418V12.1416H26.4043V9.8418H37.9473ZM26.8438 0.671875V22H24.0166V0.671875H26.8438ZM40.4082 0.671875V22H37.5957V0.671875H40.4082ZM61.9824 19.7002V22H50.6885V19.7002H61.9824ZM51.2598 0.671875V22H48.4326V0.671875H51.2598ZM60.4883 9.8418V12.1416H50.6885V9.8418H60.4883ZM61.8359 0.671875V2.98633H50.6885V0.671875H61.8359ZM84.8896 0.671875V22H82.0479L71.3105 5.5498V22H68.4834V0.671875H71.3105L82.0918 17.166V0.671875H84.8896ZM115.613 0.671875L120.74 8.8457L125.867 0.671875H129.163L122.425 11.2334L129.324 22H125.999L120.74 13.665L115.481 22H112.156L119.056 11.2334L112.317 0.671875H115.613ZM138.623 0.671875V22H135.796V0.671875H138.623ZM163.171 0.671875V22H160.329L149.592 5.5498V22H146.765V0.671875H149.592L160.373 17.166V0.671875H163.171ZM171.752 0.671875L177.289 11.3799L182.841 0.671875H186.049L178.695 14.0312V22H175.868V14.0312L168.515 0.671875H171.752ZM194.82 0.671875V22H191.993V0.671875H194.82Z" fill="#BDBDBD"/>
</svg>
